# ProBuilder 5.2.2
# https://unity3d.com/unity/features/worldbuilding/probuilder
# 28/06/2024 16:00:48

mtllib ./spikes.mtl
o spikes

g spikes
v 0.01834683 0.085 -0.01834682
v 0.01834683 0.085 0.01834683
v -0.01834682 0.085 -0.01834682
v -0.01834682 0.085 0.01834683
v -0.06015351 -0.085 -0.06015351
v 0.06015353 -0.085 -0.06015351
v -0.06015351 -0.085 0.06015353
v 0.06015353 -0.085 0.06015353

vt 0.59375 0.225
vt 0.59375 0.09166668

vn 0 1 0
vn -0.6678684 0.3284867 -0.6678684
vn 0.6678684 0.3284867 -0.6678684
vn -0.6678684 0.3284867 0.6678684
vn 0.6678684 0.3284867 0.6678684

usemtl Material1
f 3/1/1 4/1/1 2/1/1 1/1/1
f 3/1/2 1/1/3 6/2/3 5/2/2
f 7/2/4 4/1/4 3/1/2 5/2/2
f 1/1/3 2/1/5 8/2/5 6/2/3
f 7/2/4 8/2/5 2/1/5 4/1/4

