# ProBuilder 5.2.2
# https://unity3d.com/unity/features/worldbuilding/probuilder
# 28/06/2024 16:00:27

mtllib ./trap.mtl
o trap

g trap
v 0.06015351 -0.06375 -0.06015353
v -0.06015353 -0.06375 -0.06015353
v 0.06015351 0.02125 -0.06015353
v -0.06015353 0.02125 -0.06015353
v -0.06015353 0.02125 0.06015351
v -0.06015353 -0.06375 0.06015351
v 0.06015351 -0.06375 0.06015351
v 0.06015351 0.02125 0.06015351
v 0.1275 -0.06375 -0.1275
v 0.1275 -0.06375 0.1275
v -0.1275 -0.06375 0.1275
v -0.1275 -0.06375 -0.1275
v 0.108375 0.02125 0.108375
v 0.108375 0.02125 -0.108375
v -0.108375 0.02125 -0.108375
v -0.108375 0.02125 0.108375

vt 0.34375 0.025
vt 0.34375 0.225
vt 0.46875 0.025
vt 0.46875 0.225

vn 0 0 1
vn 1 0 0
vn 0 0 -1
vn -1 0 0
vn 0 -1 0
vn 0 1 0
vn -0.6738171 0.3032177 -0.6738171
vn 0.6738171 0.3032178 -0.6738171
vn -0.6738172 0.3032176 0.6738172
vn 0.6738171 0.3032177 0.6738171

usemtl Material1
f 3/2/1 4/2/1 2/1/1 1/1/1
f 5/2/2 6/1/2 2/1/2 4/2/2
f 5/2/3 8/2/3 7/1/3 6/1/3
f 7/1/4 8/2/4 3/2/4 1/1/4
f 1/3/5 9/3/5 10/3/5 7/3/5
f 6/3/5 7/3/5 10/3/5 11/3/5
f 2/3/5 12/3/5 9/3/5 1/3/5
f 12/3/5 2/3/5 6/3/5 11/3/5
f 8/4/6 13/4/6 14/4/6 3/4/6
f 4/4/6 3/4/6 14/4/6 15/4/6
f 5/4/6 16/4/6 13/4/6 8/4/6
f 16/4/6 5/4/6 4/4/6 15/4/6
f 15/4/7 14/4/8 9/3/8 12/3/7
f 11/3/9 16/4/9 15/4/7 12/3/7
f 14/4/8 13/4/10 10/3/10 9/3/8
f 11/3/9 10/3/10 13/4/10 16/4/9

