# ProBuilder 5.2.2
# https://unity3d.com/unity/features/worldbuilding/probuilder
# 01/07/2024 09:21:32

mtllib ./meat.mtl
o meat

g meat
v -0.09291382 0 -0.2863638
v -0.09291382 0.03 -0.2863638
v -0.1314 0 -0.19345
v -0.1314 0.03 -0.19345
v -1.082867E-15 0 -0.32485
v 0.09291382 0 -0.2863638
v -1.082867E-15 0.03 -0.32485
v 0.09291382 0.03 -0.2863638
v -0.1314 0 0.19345
v -0.1314 0.03 0.19345
v -0.09291382 0 0.2863638
v -0.09291382 0.03 0.2863638
v 0.09291382 0.03 0.2863638
v 0.1314 0.03 0.19345
v 0 0.03 0.32485
v 0.1314 0.03 -0.19345
v 0.1314 0 -0.19345
v 0.1314 0 0.19345
v 0.09291382 0 0.2863638
v 0 0 0.32485

vt 0.9101784 0.2112568

vn -0.7071069 0 -0.7071066
vn -0.7971752 0 -0.603748
vn -0.9657295 0 -0.2595506
vn -0.9915434 0 -0.1297753
vn 0 0 -1
vn 0.6037483 0 -0.797175
vn 0.3826839 0 -0.9238794
vn 0.7071069 0 -0.7071066
vn -0.9915434 0 0.1297753
vn -0.9657295 0 0.2595506
vn -0.7971752 0 0.603748
vn -0.9238795 0 0.3826836
vn 0 1 0
vn -0.3826839 0 -0.9238794
vn 0.9807853 0 -0.1950904
vn 1 0 0
vn 0.3826839 0 0.9238794
vn 0.1367738 0 0.9906023
vn 0 0 1
vn -0.3826839 0 0.9238794
vn 0 -1 0
vn 0.9238795 0 0.3826836
vn 0.9238795 0 -0.3826836

usemtl Material1
f 3/1/3 2/1/2 1/1/1
f 2/1/2 3/1/3 4/1/4
f 7/1/7 6/1/6 5/1/5
f 6/1/6 7/1/7 8/1/8
f 11/1/11 10/1/10 9/1/9
f 10/1/10 11/1/11 12/1/12
f 9/1/9 4/1/4 3/1/3
f 4/1/4 9/1/9 10/1/10
f 14/1/13 8/1/13 13/1/13
f 13/1/13 8/1/13 15/1/13
f 15/1/13 8/1/13 7/1/13
f 15/1/13 7/1/13 12/1/13
f 12/1/13 7/1/13 2/1/13
f 12/1/13 2/1/13 10/1/13
f 10/1/13 2/1/13 4/1/13
f 2/1/2 5/1/5 1/1/1
f 5/1/14 2/1/14 7/1/14
f 14/1/16 17/1/16 16/1/15
f 17/1/16 14/1/16 18/1/16
f 13/1/17 20/1/18 19/1/17
f 20/1/18 13/1/17 15/1/19
f 15/1/19 11/1/11 20/1/18
f 11/1/20 15/1/20 12/1/20
f 19/1/21 17/1/21 18/1/21
f 17/1/21 19/1/21 6/1/21
f 6/1/21 19/1/21 20/1/21
f 6/1/21 20/1/21 5/1/21
f 1/1/21 11/1/21 9/1/21
f 1/1/21 9/1/21 3/1/21
f 16/1/15 6/1/6 8/1/8
f 16/1/13 8/1/13 14/1/13
f 16/1/23 17/1/23 6/1/23
f 1/1/21 5/1/21 20/1/21
f 20/1/21 11/1/21 1/1/21
f 18/1/22 14/1/22 13/1/22
f 13/1/22 19/1/22 18/1/22

