# ProBuilder 5.2.2
# https://unity3d.com/unity/features/worldbuilding/probuilder
# 01/07/2024 09:22:41

mtllib ./tomaties.mtl
o tomaties

g tomaties
v 0 0.0225 -0.06299596
v -0.005765111 0.0225 -0.01391821
v -0.04454488 0.0225 -0.04454488
v 0.005765111 0.0225 0.01391821
v 0.04454488 0.0225 0.04454488
v 0 0.0225 0.06299596
v 0.04454488 0.0225 -0.04454488
v 0.06299596 0.0225 0
v 0.01391821 0.0225 -0.005765111
v -0.01391821 0.0225 0.005765111
v -0.04454488 0.0225 0.04454488
v -0.06299596 0.0225 0
v 0.04454488 0.0075 0.04454488
v 0.005765111 0.0075 0.01391821
v 0 0.0075 0.06299596
v -0.04454488 0.0075 0.04454488
v -0.01391821 0.0075 0.005765111
v -0.06299596 0.0075 0
v -0.005765111 0.0075 -0.01391821
v 0 0.0075 -0.06299596
v -0.04454488 0.0075 -0.04454488
v 0.06299596 0.0075 0
v 0.04454488 0.0075 -0.04454488
v 0.01391821 0.0075 -0.005765111
v 0.05377042 0 0.02227244
v 0.04454488 0 0.04454488
v 0.06299596 0 0
v 0.05377042 0.03 0.02227244
v 0.06299596 0.03 0
v 0.04454488 0.03 0.04454488
v 0.08999999 0 0
v 0.0636396 0 -0.0636396
v 0.0636396 0 0.0636396
v 0.04454488 0 -0.04454488
v 0 0 0.08999999
v 0 0 0.06299596
v 0 0 -0.08999999
v -0.0636396 0 0.0636396
v 0.02227244 0 -0.05377042
v 0 0 -0.06299596
v -0.04454488 0 -0.04454488
v -0.02227244 0 0.05377042
v -0.0636396 0 -0.0636396
v -0.04454488 0 0.04454488
v -0.05377042 0 -0.02227244
v -0.06299596 0 0
v -0.08999999 0 0
v 0.0636396 0.03 -0.0636396
v 0.08999999 0.03 0
v 0.0636396 0.03 0.0636396
v 0 0.03 -0.08999999
v -0.0636396 0.03 -0.0636396
v -0.05377042 0.0075 -0.02227244
v 0.04454488 0.03 -0.04454488
v 0.02227244 0.03 -0.05377042
v 0 0.03 -0.06299596
v 0 0.03 0.08999999
v 0 0.03 0.06299596
v -0.02227244 0.03 0.05377042
v -0.0636396 0.03 0.0636396
v -0.04454488 0.03 -0.04454488
v -0.04454488 0.03 0.04454488
v -0.05377042 0.03 -0.02227244
v -0.06299596 0.03 0
v -0.08999999 0.03 0
v -0.02227244 0.0075 0.05377042
v 0.05377042 0.0075 0.02227244
v 0.02227244 0.0075 -0.05377042
v 0.02227244 0.0225 -0.05377042
v -0.05377042 0.0225 -0.02227244
v -0.02227244 0.0225 0.05377042
v 0.05377042 0.0225 0.02227244

vt 0.2420152 0.2554604
vt 0.2435894 0.4926536
vt 0.2445986 0.493138

vn 0 1 0
vn 0 -1 0
vn 0.7071068 0 -0.7071068
vn 1 0 0
vn 0 0 1
vn 0.7071068 0 0.7071068
vn 0.603748 0 -0.7971752
vn 0 0 -1
vn -0.7071068 0 -0.7071068
vn 0.9238796 0 0.3826834
vn 0.3826834 0 -0.9238796
vn -1 0 0
vn -0.7071068 0 0.7071068
vn -0.603748 0 0.7971752
vn -0.9238796 0 -0.3826834
vn -0.3826834 0 0.9238796

usemtl Material2
f 3/1/1 2/1/1 1/1/1
f 6/1/1 5/1/1 4/1/1
f 15/1/2 14/1/2 13/1/2
f 21/1/2 20/1/2 19/1/2
f 27/1/2 26/1/2 25/1/1
f 30/1/1 29/1/1 28/1/1
f 33/1/2 32/1/2 31/1/2
f 34/1/2 32/1/2 27/1/2
f 37/1/2 39/1/2 40/1/2
f 42/1/2 38/1/2 44/1/2
f 43/1/2 41/1/2 45/1/2
f 43/1/2 45/1/2 46/1/2
f 43/1/2 38/1/2 47/1/2
f 48/1/1 50/1/1 49/1/1
f 30/1/1 50/1/1 29/1/1
f 55/1/1 51/1/1 56/1/1
f 60/1/1 59/1/1 62/1/1
f 61/1/1 52/1/1 63/1/1
f 63/1/1 52/1/1 64/1/1
f 60/1/1 52/1/1 65/1/1
f 16/1/7 42/1/11 44/1/3
f 15/1/8 16/1/7 66/1/1
f 23/1/14 39/1/16 34/1/13
f 20/1/5 23/1/14 68/1/1
f 54/1/14 69/1/16 7/1/13
f 56/1/5 54/1/14 55/1/1
f 62/1/7 71/1/11 11/1/3
f 58/1/8 62/1/7 59/1/1
f 12/1/1 3/1/1 70/1/1
f 71/2/1 2/2/1 10/2/1
f 6/2/1 2/2/1 71/2/1
f 69/2/1 9/2/1 7/2/1
f 21/1/2 18/1/2 53/1/1
f 19/3/2 66/3/2 17/3/2
f 19/3/2 15/3/2 66/3/2
f 67/3/2 24/3/2 22/3/2
f 72/1/1 8/1/1 7/1/1
f 7/1/1 9/1/1 72/1/1
f 10/1/1 12/1/1 11/1/1
f 11/1/1 71/1/1 10/1/1
f 16/1/2 18/1/2 17/1/2
f 17/1/2 66/1/2 16/1/2
f 68/1/2 23/1/2 22/1/2
f 22/1/2 24/1/2 68/1/2
f 27/1/2 32/1/2 33/1/2
f 33/1/2 26/1/2 27/1/2
f 26/1/2 33/1/2 35/1/2
f 35/1/2 36/1/2 26/1/2
f 37/1/2 32/1/2 34/1/2
f 34/1/2 39/1/2 37/1/2
f 36/1/2 35/1/2 38/1/2
f 38/1/2 42/1/2 36/1/2
f 37/1/2 40/1/2 41/1/2
f 41/1/2 43/1/2 37/1/2
f 46/1/2 44/1/2 38/1/2
f 38/1/2 43/1/2 46/1/2
f 31/1/4 32/1/3 48/1/3
f 48/1/3 49/1/4 31/1/4
f 21/1/6 41/1/6 40/1/5
f 40/1/5 20/1/5 21/1/6
f 33/1/6 31/1/4 49/1/4
f 49/1/4 50/1/6 33/1/6
f 44/1/3 46/1/4 18/1/4
f 18/1/4 16/1/7 44/1/3
f 48/1/3 32/1/3 37/1/8
f 37/1/8 51/1/8 48/1/3
f 51/1/8 37/1/8 43/1/9
f 43/1/9 52/1/9 51/1/8
f 45/1/10 41/1/6 21/1/6
f 21/1/6 53/1/10 45/1/10
f 45/1/10 53/1/10 18/1/4
f 18/1/4 46/1/4 45/1/10
f 13/1/9 26/1/9 36/1/8
f 36/1/8 15/1/8 13/1/9
f 29/1/1 50/1/1 48/1/1
f 48/1/1 54/1/1 29/1/1
f 54/1/1 48/1/1 51/1/1
f 51/1/1 55/1/1 54/1/1
f 57/1/1 50/1/1 30/1/1
f 30/1/1 58/1/1 57/1/1
f 57/1/1 58/1/1 59/1/1
f 59/1/1 60/1/1 57/1/1
f 56/1/1 51/1/1 52/1/1
f 52/1/1 61/1/1 56/1/1
f 60/1/1 62/1/1 64/1/1
f 64/1/1 52/1/1 60/1/1
f 36/1/8 42/1/11 16/1/7
f 16/1/7 15/1/8 36/1/8
f 60/1/13 65/1/12 47/1/12
f 47/1/12 38/1/13 60/1/13
f 57/1/5 35/1/5 33/1/6
f 33/1/6 50/1/6 57/1/5
f 22/1/12 23/1/14 34/1/13
f 34/1/13 27/1/12 22/1/12
f 60/1/13 38/1/13 35/1/5
f 35/1/5 57/1/5 60/1/13
f 67/1/15 22/1/12 27/1/12
f 27/1/12 25/1/15 67/1/15
f 67/1/15 25/1/15 26/1/9
f 26/1/9 13/1/9 67/1/15
f 65/1/12 52/1/9 43/1/9
f 43/1/9 47/1/12 65/1/12
f 40/1/5 39/1/16 23/1/14
f 23/1/14 20/1/5 40/1/5
f 1/1/5 69/1/16 54/1/14
f 54/1/14 56/1/5 1/1/5
f 61/1/6 3/1/6 1/1/5
f 1/1/5 56/1/5 61/1/6
f 29/1/12 54/1/14 7/1/13
f 7/1/13 8/1/12 29/1/12
f 70/1/10 3/1/6 61/1/6
f 61/1/6 63/1/10 70/1/10
f 70/1/10 63/1/10 64/1/4
f 64/1/4 12/1/4 70/1/10
f 11/1/3 12/1/4 64/1/4
f 64/1/4 62/1/7 11/1/3
f 6/1/8 71/1/11 62/1/7
f 62/1/7 58/1/8 6/1/8
f 28/1/15 29/1/12 8/1/12
f 8/1/12 72/1/15 28/1/15
f 28/1/15 72/1/15 5/1/9
f 5/1/9 30/1/9 28/1/15
f 30/1/9 5/1/9 6/1/8
f 6/1/8 58/1/8 30/1/9
f 2/2/1 3/2/1 12/2/1
f 12/2/1 10/2/1 2/2/1
f 4/2/1 1/2/1 2/2/1
f 2/2/1 6/2/1 4/2/1
f 69/2/1 1/2/1 4/2/1
f 4/2/1 9/2/1 69/2/1
f 72/2/1 9/2/1 4/2/1
f 4/2/1 5/2/1 72/2/1
f 19/3/2 17/3/2 18/3/2
f 18/3/2 21/3/2 19/3/2
f 14/3/2 15/3/2 19/3/2
f 19/3/2 20/3/2 14/3/2
f 68/3/2 24/3/2 14/3/2
f 14/3/2 20/3/2 68/3/2
f 67/3/2 13/3/2 14/3/2
f 14/3/2 24/3/2 67/3/2

